<svg width="161" height="409" viewBox="0 0 161 409" fill="none" xmlns="http://www.w3.org/2000/svg">
<path d="M42 12C42 30.0678 43.9897 44.7471 44.419 62.0839C44.5244 66.3414 43.9559 70.5858 42.8809 74.7067L41.5 80L33 108L20.5 142.5L8.29225 179.123C7.43218 181.703 6.78408 184.35 6.35438 187.035L3 208L1.5 293L4.38504 397.342C4.45666 399.932 5.84472 402.307 8.06644 403.64V403.64C9.01082 404.206 10.0672 404.561 11.1623 404.678L23.5 406L39.5 407.5H80.5H121L137 406L149.338 404.678C150.433 404.561 151.489 404.206 152.434 403.64V403.64C154.655 402.307 156.043 399.932 156.115 397.342L159 293L157.5 208L154.146 187.035C153.716 184.35 153.068 181.703 152.208 179.123L140 142.5L127.5 108L119 80L117.961 76.0158C116.661 71.0351 116.139 65.8837 116.412 60.7436L119 12M42 12C42 19.4558 57.2518 23 81 23C104.748 23 119 19.4558 119 12M42 12C42 7.70799 46.368 6.48836 58 5C66.5745 3.90286 75.9226 1.5 86 1.5C109.748 1.5 119 4.54416 119 12" stroke="#000000" stroke-width="3"/>
<path d="M29 232L30.0096 174.792L32.0561 162.001C32.4858 159.316 33.1339 156.67 33.9939 154.089L41.7877 130.708L50.2006 107.488L55.9214 88.6434L56.3214 87.1101C57.3964 82.9892 57.9406 78.7452 57.9406 74.4863C57.9406 64.5372 57.9406 57.3416 57.9406 46" stroke="#FFFFFF" stroke-width="3"/>
</svg>
